<svg width="329" height="341" viewBox="0 0 329 341" fill="none" xmlns="http://www.w3.org/2000/svg">
<path d="M221.904 290.434C203.693 307.511 195.342 312.729 193.442 313.203C173.519 322.216 186.042 334.833 173.519 330.28C160.996 325.726 155.195 318.421 154.721 313.203C163.259 305.613 129.093 280.547 133.673 262.684C139.366 240.484 138.891 220.229 137.943 212.877C130.28 193.779 115.743 184.415 118.02 170.184C120.866 152.396 110.904 162.358 100.944 151.685C92.9754 143.146 85.2898 143.383 82.443 144.569C75.0905 146.941 58.1085 151.685 49.0009 151.685C39.8933 151.685 44.2244 146.648 33.2938 144.569C24.2845 140.3 9.86609 119.239 21.2506 69.1468C32.6352 19.0548 79.123 8.90347 100.944 10.0893C149.92 12.7508 133.518 41.2875 184.879 24.1836C220.171 20.7682 229.964 39.9742 231.861 49.9355C235.656 66.3008 249.191 102.726 285.938 105.435C320.38 107.974 313.193 138.066 305.84 152.534C296.919 170.087 267.438 180.995 267.438 202.915C267.438 211.378 271.151 228.627 263.88 243.473C253.08 265.526 240.116 273.357 221.904 290.434Z" stroke="#FACC15" stroke-width="10.7362"/>
<path d="M219.473 285.347C202.035 301.699 194.038 306.695 192.219 307.149C173.142 315.779 185.133 327.862 173.142 323.501C161.151 319.141 155.595 312.146 155.141 307.149C163.317 299.882 130.602 275.88 134.988 258.775C140.438 237.518 139.984 218.123 139.076 211.082C131.739 192.796 117.818 183.829 119.999 170.203C122.724 153.17 113.185 162.708 103.648 152.489C96.0177 144.313 88.6584 144.54 85.9325 145.675C78.8921 147.946 62.6312 152.489 53.9102 152.489C45.1893 152.489 49.3365 147.665 38.8699 145.675C30.2431 141.587 16.4369 121.42 27.3381 73.455C38.2393 25.4897 82.7534 15.7694 103.648 16.9048C150.545 19.4534 134.839 46.7785 184.019 30.4007C217.813 27.1304 227.19 45.5209 229.007 55.0593C232.641 70.7298 245.601 105.609 280.788 108.203C313.768 110.634 306.885 139.448 299.845 153.302C291.303 170.11 263.073 180.555 263.073 201.544C263.073 209.647 266.628 226.165 259.667 240.38C249.324 261.497 236.911 268.995 219.473 285.347Z" fill="#FACC15" stroke="#180E20" stroke-width="10.2804"/>
<path d="M166.267 161.051C162.658 164.145 156.332 162.987 152.143 158.099C147.954 153.212 147.778 146.783 151.387 143.69C154.996 140.597 161.322 141.754 165.511 146.642C169.7 151.53 169.876 157.958 166.267 161.051Z" fill="#B0FFB8" stroke="#180E20"/>
<path d="M180.358 142.224C175.462 143.086 170.423 138.769 169.282 132.291C168.141 125.814 171.402 120.035 176.298 119.172C181.194 118.31 186.233 122.627 187.374 129.105C188.515 135.583 185.254 141.362 180.358 142.224Z" fill="#B0FFB8" stroke="#180E20"/>
<path d="M199.965 144.616C195.47 142.376 193.964 135.859 196.915 129.934C199.867 124.009 205.976 121.285 210.472 123.524C214.968 125.764 216.473 132.281 213.522 138.206C210.57 144.131 204.461 146.855 199.965 144.616Z" fill="#B0FFB8" stroke="#180E20"/>
<path d="M209.149 169.493C205.818 165.856 206.74 159.34 211.549 154.935C216.358 150.529 222.93 150.181 226.262 153.818C229.594 157.456 228.671 163.972 223.862 168.377C219.053 172.782 212.481 173.131 209.149 169.493Z" fill="#B0FFB8" stroke="#180E20"/>
<path d="M176.703 181.98C163.653 184.089 164.307 171.386 165.815 168.867C167.324 166.348 172.886 163.244 172.886 163.244C172.886 163.244 174.217 163.118 178.847 155.357C183.477 147.596 189.747 146.334 194.124 149.014C196.477 150.455 198.442 157.352 199.574 162.594C201.539 167.507 204.445 167.973 205.738 173.85C208.398 185.939 198.433 186.516 193.013 185.057C187.593 183.598 186.92 180.33 176.703 181.98Z" fill="#FF7A7A" stroke="#180E20"/>
<path d="M219.846 120.533C213.928 113.187 200.302 114.227 194.184 116.091C190.679 113.705 183.007 108.749 173.162 111.255C163.316 113.761 159.443 123.973 159.443 131.39C154.674 130.29 147.894 133.956 145.081 139.854C141.594 147.166 141.875 155.805 147.094 164.245C154.115 175.606 151.446 174.571 158.458 185.772C166.058 197.912 184.909 199.294 196.099 198.481C203.465 197.32 205.039 195.497 211.638 191.226C223.943 183.261 224.86 184.723 231.292 174.695C236.523 167.884 237.624 161.936 237.624 156.354C237.624 148.05 227.277 142.017 222.727 139.854C223.921 136.647 225.57 127.639 219.846 120.533Z" stroke="#180E20" stroke-width="1.5"/>
</svg>
